<?xml version="1.0" encoding="utf-8"?>
<!-- Generator: Adobe Illustrator 19.0.0, SVG Export Plug-In . SVG Version: 6.00 Build 0)  -->
<svg version="1.1" id="Layer_1" xmlns="http://www.w3.org/2000/svg" xmlns:xlink="http://www.w3.org/1999/xlink" x="0px" y="0px"
	 viewBox="0 0 300 75" style="enable-background:new 0 0 300 75;" xml:space="preserve">
<style type="text/css">
	.st0{fill:#FFFFFF;stroke:#FFFFFF;stroke-width:3;stroke-miterlimit:10;}
	.st1{fill:#FFFFFF;stroke:#FFFFFF;stroke-miterlimit:10;}
</style>
<path id="XMLID_18_" class="st0" d="M102.3,29.3c-3.2-1.2-9.4-2.9-17.2-2c-6.9,0.8-12.1,3.3-14.9,5C67,26.1,63.8,20,60.7,13.9
	c12.9,0,25.7,0,38.6,0c0-1.2,0-2.4,0-3.7c-14.9,0-29.8,0-44.6,0c4.2,8,8.3,16,12.5,24c-2.1,1.7-4.1,3.4-6.2,5
	C55.5,28.7,50,18,44.6,7.4c-6.5,13-12.9,25.9-19.4,38.9c1.9,1.4,8.6,5.9,18.1,5.3c8.8-0.5,14.6-5,16.5-6.5c3.6,7.3,7.2,14.6,10.9,22
	c5.9,0,11.7,0,17.6,0C82.8,56.5,77.4,46,71.9,35.4c2.6-1.5,7-3.7,13-4.5c7.4-1,13.2,0.6,16.3,1.7c0.9,0.1,1.7-0.4,2-1.2
	C103.4,30.6,103.1,29.7,102.3,29.3z M44.5,47.9c-7.2,0.9-12.6-1.7-14.5-2.7c4.8-9.5,9.7-19,14.5-28.5c4.5,8.3,9.1,16.7,13.6,25
	C56.5,43.1,51.8,47,44.5,47.9z M82.4,63.6H73c-3.5-7-6.9-13.9-10.4-20.9c2.1-1.7,4.2-3.4,6.3-5.1C73.4,46.2,77.9,54.9,82.4,63.6z"/>
<circle id="XMLID_12_" class="st1" cx="22.2" cy="61.3" r="8.3"/>
<path id="XMLID_4_" class="st1" d="M118.2,32.6l6.5-9.5V23h-5.9v-1.3h7.9v0.9l-6.4,9.4v0.1h6.5v1.3h-8.5V32.6z"/>
<path id="XMLID_6_" class="st1" d="M133.2,33.4l-0.1-1.1H133c-0.5,0.7-1.4,1.2-2.6,1.2c-1.7,0-2.6-1.2-2.6-2.4c0-2,1.8-3.1,5-3.1
	v-0.2c0-0.7-0.2-1.9-1.9-1.9c-0.8,0-1.6,0.2-2.2,0.6l-0.3-1c0.7-0.4,1.7-0.7,2.8-0.7c2.6,0,3.2,1.7,3.2,3.4v3.1c0,0.7,0,1.4,0.1,2
	H133.2z M132.9,29.2c-1.7,0-3.5,0.3-3.5,1.9c0,1,0.7,1.5,1.4,1.5c1.1,0,1.8-0.7,2-1.4c0.1-0.2,0.1-0.3,0.1-0.5V29.2z"/>
<path id="XMLID_9_" class="st1" d="M136.9,27.3c0-0.9,0-1.6-0.1-2.3h1.3l0.1,1.3h0.1c0.5-0.8,1.2-1.5,2.6-1.5c1.1,0,2,0.7,2.4,1.7h0
	c0.3-0.5,0.6-0.8,0.9-1.1c0.5-0.4,1.1-0.6,1.9-0.6c1.1,0,2.8,0.7,2.8,3.6v4.9h-1.5v-4.7c0-1.6-0.6-2.6-1.8-2.6
	c-0.9,0-1.5,0.6-1.8,1.4c-0.1,0.2-0.1,0.5-0.1,0.8v5.2h-1.5v-5c0-1.3-0.6-2.3-1.7-2.3c-1,0-1.6,0.8-1.9,1.5
	c-0.1,0.2-0.1,0.5-0.1,0.7v5.1h-1.5V27.3z"/>
<path id="XMLID_11_" class="st1" d="M151.2,33.4c0-0.6,0.1-1.4,0.1-2.2V21.2h1.5v5.3h0c0.5-0.9,1.5-1.5,2.9-1.5
	c2.1,0,3.5,1.7,3.5,4.3c0,3-1.9,4.5-3.8,4.5c-1.2,0-2.2-0.5-2.8-1.6h-0.1l-0.1,1.4H151.2z M152.8,30.1c0,0.2,0,0.4,0.1,0.6
	c0.3,1.1,1.2,1.8,2.3,1.8c1.6,0,2.5-1.3,2.5-3.2c0-1.7-0.9-3.1-2.5-3.1c-1,0-2,0.7-2.3,1.9c0,0.2-0.1,0.4-0.1,0.6V30.1z"/>
<path id="XMLID_20_" class="st1" d="M162.8,22.7c0,0.5-0.4,0.9-1,0.9c-0.5,0-0.9-0.4-0.9-0.9c0-0.5,0.4-1,1-1
	C162.5,21.8,162.8,22.2,162.8,22.7z M161.2,33.4v-8.4h1.5v8.4H161.2z"/>
<path id="XMLID_23_" class="st1" d="M169.8,33.4l-0.1-1.1h-0.1c-0.5,0.7-1.4,1.2-2.6,1.2c-1.7,0-2.6-1.2-2.6-2.4c0-2,1.8-3.1,5-3.1
	v-0.2c0-0.7-0.2-1.9-1.9-1.9c-0.8,0-1.6,0.2-2.2,0.6l-0.3-1c0.7-0.4,1.7-0.7,2.8-0.7c2.6,0,3.2,1.7,3.2,3.4v3.1c0,0.7,0,1.4,0.1,2
	H169.8z M169.6,29.2c-1.7,0-3.5,0.3-3.5,1.9c0,1,0.7,1.5,1.4,1.5c1.1,0,1.8-0.7,2-1.4c0.1-0.2,0.1-0.3,0.1-0.5V29.2z"/>
<path id="XMLID_26_" class="st1" d="M192.1,21.8h-1.8l-4,11.7h1.6l1.2-3.7l0.3-1.2l1.1-3.4c0.2-0.7,0.4-1.4,0.6-2.1h0
	c0.2,0.7,0.3,1.4,0.6,2.1l1.1,3.4l0.3,1.2l1.2,3.7h1.6L192.1,21.8z"/>
<path id="XMLID_29_" class="st1" d="M203.5,33.1c-0.4,0.2-1.3,0.5-2.4,0.5c-2.5,0-4.2-1.7-4.2-4.3c0-2.6,1.8-4.4,4.5-4.4
	c0.9,0,1.7,0.2,2.1,0.4l-0.3,1.2c-0.4-0.2-0.9-0.4-1.8-0.4c-1.9,0-3,1.4-3,3.2c0,1.9,1.2,3.1,2.9,3.1c0.9,0,1.4-0.2,1.9-0.4
	L203.5,33.1z"/>
<path id="XMLID_31_" class="st1" d="M211.1,33.1c-0.4,0.2-1.3,0.5-2.4,0.5c-2.5,0-4.2-1.7-4.2-4.3c0-2.6,1.8-4.4,4.5-4.4
	c0.9,0,1.7,0.2,2.1,0.4l-0.3,1.2c-0.4-0.2-0.9-0.4-1.8-0.4c-1.9,0-3,1.4-3,3.2c0,1.9,1.2,3.1,2.9,3.1c0.9,0,1.4-0.2,1.9-0.4
	L211.1,33.1z"/>
<path id="XMLID_33_" class="st1" d="M220.4,29.2c0,3.1-2.1,4.4-4.2,4.4c-2.3,0-4-1.7-4-4.3c0-2.8,1.8-4.4,4.2-4.4
	C218.8,24.9,220.4,26.6,220.4,29.2z M213.7,29.3c0,1.8,1.1,3.2,2.5,3.2c1.5,0,2.5-1.4,2.5-3.3c0-1.4-0.7-3.2-2.5-3.2
	C214.5,26,213.7,27.7,213.7,29.3z"/>
<path id="XMLID_36_" class="st1" d="M229.3,31.2c0,0.9,0,1.6,0.1,2.3H228l-0.1-1.4h0c-0.4,0.7-1.3,1.6-2.8,1.6
	c-1.3,0-2.9-0.7-2.9-3.7v-4.9h1.5v4.6c0,1.6,0.5,2.7,1.9,2.7c1,0,1.7-0.7,2-1.4c0.1-0.2,0.1-0.5,0.1-0.8v-5.1h1.5V31.2z"/>
<path id="XMLID_38_" class="st1" d="M231.8,27.3c0-0.9,0-1.6-0.1-2.3h1.3l0.1,1.4h0c0.4-0.8,1.4-1.6,2.8-1.6c1.2,0,3,0.7,3,3.6v5
	h-1.5v-4.8c0-1.3-0.5-2.5-1.9-2.5c-1,0-1.8,0.7-2,1.6c-0.1,0.2-0.1,0.5-0.1,0.7v5h-1.5V27.3z"/>
<path id="XMLID_40_" class="st1" d="M243.2,22.7v2.4h2.2v1.2h-2.2v4.5c0,1,0.3,1.6,1.1,1.6c0.4,0,0.7-0.1,0.9-0.1l0.1,1.1
	c-0.3,0.1-0.8,0.2-1.3,0.2c-0.7,0-1.3-0.2-1.6-0.6c-0.4-0.5-0.6-1.2-0.6-2.2v-4.6h-1.3v-1.2h1.3v-2L243.2,22.7z"/>
<path id="XMLID_42_" class="st1" d="M251.7,33.4l-0.1-1.1h-0.1c-0.5,0.7-1.4,1.2-2.6,1.2c-1.7,0-2.6-1.2-2.6-2.4c0-2,1.8-3.1,5-3.1
	v-0.2c0-0.7-0.2-1.9-1.9-1.9c-0.8,0-1.6,0.2-2.2,0.6l-0.3-1c0.7-0.4,1.7-0.7,2.8-0.7c2.6,0,3.2,1.7,3.2,3.4v3.1c0,0.7,0,1.4,0.1,2
	H251.7z M251.5,29.2c-1.7,0-3.5,0.3-3.5,1.9c0,1,0.7,1.5,1.4,1.5c1.1,0,1.8-0.7,2-1.4c0.1-0.2,0.1-0.3,0.1-0.5V29.2z"/>
<path id="XMLID_45_" class="st1" d="M255.4,27.3c0-0.9,0-1.6-0.1-2.3h1.3l0.1,1.4h0c0.4-0.8,1.4-1.6,2.8-1.6c1.2,0,3,0.7,3,3.6v5
	H261v-4.8c0-1.3-0.5-2.5-1.9-2.5c-1,0-1.8,0.7-2,1.6c-0.1,0.2-0.1,0.5-0.1,0.7v5h-1.5V27.3z"/>
<path id="XMLID_2_" class="st1" d="M172.9,27.3c0-0.9,0-1.6-0.1-2.3h1.3l0.1,1.4h0c0.4-0.8,1.4-1.6,2.8-1.6c1.2,0,3,0.7,3,3.6v5
	h-1.5v-4.8c0-1.3-0.5-2.5-1.9-2.5c-1,0-1.8,0.7-2,1.6c-0.1,0.2-0.1,0.5-0.1,0.7v5h-1.5V27.3z"/>
<path id="XMLID_47_" class="st1" d="M271,33.1c-0.4,0.2-1.3,0.5-2.4,0.5c-2.5,0-4.2-1.7-4.2-4.3c0-2.6,1.8-4.4,4.5-4.4
	c0.9,0,1.7,0.2,2.1,0.4l-0.3,1.2c-0.4-0.2-0.9-0.4-1.8-0.4c-1.9,0-3,1.4-3,3.2c0,1.9,1.2,3.1,2.9,3.1c0.9,0,1.4-0.2,1.9-0.4
	L271,33.1z"/>
<path id="XMLID_49_" class="st1" d="M273.7,25.1l1.8,4.9c0.2,0.6,0.4,1.2,0.5,1.7h0c0.2-0.5,0.3-1.1,0.5-1.7l1.7-4.9h1.6l-2.3,6
	c-1.1,2.9-1.8,4.3-2.9,5.2c-0.7,0.7-1.5,0.9-1.9,1l-0.4-1.3c0.4-0.1,0.9-0.4,1.3-0.7c0.4-0.3,0.9-0.9,1.3-1.7
	c0.1-0.2,0.1-0.3,0.1-0.4c0-0.1,0-0.2-0.1-0.4l-3.1-7.7H273.7z"/>
<path id="XMLID_51_" class="st1" d="M288.1,32c-0.2-0.2-0.4-0.4-0.7-0.7c-0.6,0.6-1.3,0.8-2.1,0.8c-1.4,0-2.2-0.9-2.2-2
	c0-1,0.6-1.6,1.4-2.1v0c-0.4-0.5-0.6-1-0.6-1.5c0-0.9,0.6-1.7,1.8-1.7c0.9,0,1.6,0.6,1.6,1.5c0,0.7-0.4,1.3-1.5,1.9v0
	c0.6,0.7,1.3,1.5,1.7,2c0.3-0.5,0.5-1.2,0.7-2.1h0.8c-0.2,1.1-0.5,2-1,2.6c0.4,0.4,0.7,0.8,1.2,1.2H288.1z M287,30.8
	c-0.4-0.5-1.2-1.3-2-2.2c-0.4,0.2-0.9,0.7-0.9,1.4c0,0.8,0.6,1.4,1.4,1.4C286.1,31.4,286.6,31.1,287,30.8z M284.8,26.5
	c0,0.5,0.2,0.9,0.5,1.3c0.7-0.4,1.2-0.8,1.2-1.4c0-0.4-0.2-0.9-0.8-0.9C285.1,25.5,284.8,26,284.8,26.5z"/>
<path id="XMLID_55_" class="st1" d="M146,42.5h6.3v1.3h-4.8v3.9h4.4v1.2h-4.4v5.3H146V42.5z"/>
<path id="XMLID_57_" class="st1" d="M155.6,43.5c0,0.5-0.4,0.9-1,0.9c-0.5,0-0.9-0.4-0.9-0.9c0-0.5,0.4-1,1-1
	C155.3,42.5,155.6,42.9,155.6,43.5z M153.9,54.2v-8.4h1.5v8.4H153.9z"/>
<path id="XMLID_60_" class="st1" d="M158,48.1c0-0.9,0-1.6-0.1-2.3h1.3l0.1,1.4h0c0.4-0.8,1.4-1.6,2.8-1.6c1.2,0,3,0.7,3,3.6v5h-1.5
	v-4.8c0-1.3-0.5-2.5-1.9-2.5c-1,0-1.8,0.7-2,1.6c-0.1,0.2-0.1,0.5-0.1,0.7v5H158V48.1z"/>
<path id="XMLID_62_" class="st1" d="M172.2,54.2l-0.1-1.1H172c-0.5,0.7-1.4,1.2-2.6,1.2c-1.7,0-2.6-1.2-2.6-2.4c0-2,1.8-3.1,5-3.1
	v-0.2c0-0.7-0.2-1.9-1.9-1.9c-0.8,0-1.6,0.2-2.2,0.6l-0.3-1c0.7-0.4,1.7-0.7,2.8-0.7c2.6,0,3.2,1.7,3.2,3.4v3.1c0,0.7,0,1.4,0.1,2
	H172.2z M172,49.9c-1.7,0-3.5,0.3-3.5,1.9c0,1,0.7,1.5,1.4,1.5c1.1,0,1.8-0.7,2-1.4c0.1-0.2,0.1-0.3,0.1-0.5V49.9z"/>
<path id="XMLID_65_" class="st1" d="M175.9,48.1c0-0.9,0-1.6-0.1-2.3h1.3l0.1,1.4h0c0.4-0.8,1.4-1.6,2.8-1.6c1.2,0,3,0.7,3,3.6v5
	h-1.5v-4.8c0-1.3-0.5-2.5-1.9-2.5c-1,0-1.8,0.7-2,1.6c-0.1,0.2-0.1,0.5-0.1,0.7v5h-1.5V48.1z"/>
<path id="XMLID_67_" class="st1" d="M191.5,53.9c-0.4,0.2-1.3,0.5-2.4,0.5c-2.5,0-4.2-1.7-4.2-4.3c0-2.6,1.8-4.4,4.5-4.4
	c0.9,0,1.7,0.2,2.1,0.4l-0.3,1.2c-0.4-0.2-0.9-0.4-1.8-0.4c-1.9,0-3,1.4-3,3.2c0,1.9,1.2,3.1,2.9,3.1c0.9,0,1.4-0.2,1.9-0.4
	L191.5,53.9z"/>
<path id="XMLID_69_" class="st1" d="M194,50.3c0,2.1,1.3,2.9,2.9,2.9c1.1,0,1.7-0.2,2.3-0.4l0.3,1.1c-0.5,0.2-1.5,0.5-2.8,0.5
	c-2.6,0-4.1-1.7-4.1-4.2s1.5-4.5,3.9-4.5c2.7,0,3.5,2.4,3.5,3.9c0,0.3,0,0.6-0.1,0.7H194z M198.5,49.2c0-1-0.4-2.5-2.1-2.5
	c-1.5,0-2.2,1.4-2.3,2.5H198.5z"/>
<path id="XMLID_72_" class="st1" d="M210.5,42.5h-1.8l-4,11.7h1.6l1.2-3.7l0.3-1.2l1.1-3.4c0.2-0.7,0.4-1.4,0.6-2.1h0
	c0.2,0.7,0.3,1.4,0.6,2.1l1.1,3.4l0.3,1.2l1.2,3.7h1.6L210.5,42.5z"/>
<path id="XMLID_75_" class="st1" d="M216.3,45.8l1.1,4.3c0.2,0.9,0.5,1.8,0.6,2.7h0.1c0.2-0.8,0.5-1.7,0.7-2.6l1.4-4.3h1.3l1.3,4.2
	c0.3,1,0.6,1.9,0.7,2.7h0.1c0.1-0.8,0.4-1.7,0.6-2.7l1.2-4.2h1.5l-2.7,8.4h-1.4l-1.3-4c-0.3-0.9-0.5-1.8-0.7-2.8h0
	c-0.2,1-0.5,1.9-0.8,2.8l-1.3,4h-1.4l-2.5-8.4H216.3z"/>
<path id="XMLID_77_" class="st1" d="M233,54.2l-0.1-1.1h-0.1c-0.5,0.7-1.4,1.2-2.6,1.2c-1.7,0-2.6-1.2-2.6-2.4c0-2,1.8-3.1,5-3.1
	v-0.2c0-0.7-0.2-1.9-1.9-1.9c-0.8,0-1.6,0.2-2.2,0.6l-0.3-1c0.7-0.4,1.7-0.7,2.8-0.7c2.6,0,3.2,1.7,3.2,3.4v3.1c0,0.7,0,1.4,0.1,2
	H233z M232.8,49.9c-1.7,0-3.5,0.3-3.5,1.9c0,1,0.7,1.5,1.4,1.5c1.1,0,1.8-0.7,2-1.4c0.1-0.2,0.1-0.3,0.1-0.5V49.9z"/>
<path id="XMLID_80_" class="st1" d="M236.7,48.4c0-1,0-1.8-0.1-2.6h1.3l0.1,1.6h0.1c0.4-1.1,1.3-1.8,2.3-1.8c0.2,0,0.3,0,0.4,0.1
	v1.4c-0.2,0-0.3-0.1-0.5-0.1c-1.1,0-1.8,0.8-2,2c0,0.2-0.1,0.4-0.1,0.7v4.5h-1.5V48.4z"/>
<path id="XMLID_82_" class="st1" d="M249.5,41.9V52c0,0.7,0,1.6,0.1,2.2h-1.4l-0.1-1.5h0c-0.5,0.9-1.5,1.6-2.9,1.6
	c-2,0-3.6-1.7-3.6-4.3c0-2.8,1.7-4.5,3.8-4.5c1.3,0,2.1,0.6,2.5,1.3h0v-5H249.5z M247.9,49.2c0-0.2,0-0.4-0.1-0.6
	c-0.2-1-1.1-1.8-2.2-1.8c-1.6,0-2.5,1.4-2.5,3.2c0,1.7,0.8,3.1,2.5,3.1c1,0,2-0.7,2.2-1.8c0.1-0.2,0.1-0.4,0.1-0.7V49.2z"/>
<path id="XMLID_85_" class="st1" d="M251.8,52.7c0.5,0.3,1.2,0.6,2,0.6c1.1,0,1.6-0.6,1.6-1.2c0-0.7-0.4-1.1-1.6-1.5
	c-1.5-0.5-2.2-1.4-2.2-2.4c0-1.3,1.1-2.5,2.9-2.5c0.8,0,1.6,0.2,2.1,0.5l-0.4,1.1c-0.3-0.2-0.9-0.5-1.7-0.5c-0.9,0-1.4,0.5-1.4,1.1
	c0,0.7,0.5,1,1.6,1.4c1.5,0.6,2.2,1.3,2.2,2.5c0,1.5-1.1,2.5-3.1,2.5c-0.9,0-1.8-0.2-2.4-0.6L251.8,52.7z"/>
</svg>
