<?xml version="1.0" encoding="utf-8"?>
<!-- Generator: Adobe Illustrator 19.0.0, SVG Export Plug-In . SVG Version: 6.00 Build 0)  -->
<svg version="1.1" id="Layer_1" xmlns="http://www.w3.org/2000/svg" xmlns:xlink="http://www.w3.org/1999/xlink" x="0px" y="0px"
	 viewBox="0 0 300 75" style="enable-background:new 0 0 300 75;" xml:space="preserve">
<style type="text/css">
	.st0{fill:#11115B;stroke:#11115B;stroke-width:3;stroke-miterlimit:10;}
	.st1{fill:url(#XMLID_27_);}
	.st2{fill:#11115B;}
</style>
<path id="XMLID_18_" class="st0" d="M98,28.4c-3.5-1.3-10.3-3.2-18.9-2.2c-7.6,0.9-13.2,3.6-16.4,5.5c-3.5-6.7-6.9-13.4-10.4-20.1
	c14.1,0,28.2,0,42.3,0c0-1.3,0-2.7,0-4c-16.3,0-32.6,0-48.9,0c4.6,8.8,9.1,17.6,13.7,26.4c-2.2,1.8-4.5,3.7-6.7,5.5
	c-6-11.7-12-23.3-18-35C27.5,18.6,20.5,32.8,13.4,47c2.1,1.5,9.4,6.4,19.8,5.9c9.6-0.5,16-5.5,18.1-7.2c4,8,7.9,16.1,11.9,24.1
	c6.4,0,12.8,0,19.3,0c-5.9-11.5-11.9-23.1-17.8-34.6c2.8-1.7,7.7-4.1,14.2-5c8.1-1.1,14.5,0.7,17.8,1.8c0.9,0.2,1.9-0.4,2.2-1.3
	C99.2,29.8,98.8,28.8,98,28.4z M34.5,48.8c-7.9,0.9-13.9-1.9-15.9-3c5.3-10.4,10.6-20.8,15.9-31.3c5,9.2,9.9,18.3,14.9,27.5
	C47.7,43.5,42.6,47.8,34.5,48.8z M76.1,66H65.8c-3.8-7.6-7.6-15.3-11.4-22.9c2.3-1.9,4.6-3.8,6.9-5.6C66.2,47,71.2,56.5,76.1,66z"/>
<linearGradient id="XMLID_27_" gradientUnits="userSpaceOnUse" x1="0.2102" y1="57.6618" x2="22.478" y2="70.6434">
	<stop  offset="7.363323e-002" style="stop-color:#F9F295"/>
	<stop  offset="0.3143" style="stop-color:#E0AA3E"/>
	<stop  offset="0.5879" style="stop-color:#E0AA3E"/>
	<stop  offset="0.7552" style="stop-color:#B88A44"/>
</linearGradient>
<circle id="XMLID_12_" class="st1" cx="10.1" cy="63.5" r="9.1"/>
<path id="XMLID_4_" class="st2" d="M110.6,30l7.1-10.4v-0.1h-6.5v-1.4h8.6v1l-7.1,10.3v0.1h7.2V31h-9.3V30z"/>
<path id="XMLID_6_" class="st2" d="M127,31l-0.1-1.2h-0.1c-0.5,0.7-1.5,1.4-2.8,1.4c-1.9,0-2.8-1.3-2.8-2.6c0-2.2,2-3.4,5.5-3.4
	v-0.2c0-0.8-0.2-2.1-2.1-2.1c-0.9,0-1.7,0.3-2.4,0.7l-0.4-1.1c0.8-0.5,1.9-0.8,3-0.8c2.8,0,3.5,1.9,3.5,3.8v3.4c0,0.8,0,1.6,0.2,2.2
	H127z M126.8,26.3c-1.8,0-3.9,0.3-3.9,2.1c0,1.1,0.7,1.6,1.6,1.6c1.2,0,2-0.8,2.2-1.5c0.1-0.2,0.1-0.4,0.1-0.5V26.3z"/>
<path id="XMLID_9_" class="st2" d="M131.1,24.3c0-0.9,0-1.7-0.1-2.5h1.5l0.1,1.5h0.1c0.5-0.9,1.4-1.7,2.9-1.7c1.3,0,2.2,0.8,2.6,1.8
	h0c0.3-0.5,0.6-0.9,1-1.2c0.6-0.4,1.2-0.6,2-0.6c1.2,0,3,0.8,3,4V31h-1.6v-5.2c0-1.8-0.6-2.8-2-2.8c-0.9,0-1.7,0.7-2,1.5
	c-0.1,0.2-0.1,0.5-0.1,0.8V31h-1.6v-5.5c0-1.5-0.6-2.5-1.9-2.5c-1,0-1.8,0.8-2.1,1.7c-0.1,0.2-0.1,0.5-0.1,0.8V31h-1.6V24.3z"/>
<path id="XMLID_11_" class="st2" d="M146.8,31c0-0.6,0.1-1.6,0.1-2.4V17.5h1.7v5.8h0c0.6-1,1.7-1.7,3.1-1.7c2.3,0,3.9,1.9,3.9,4.7
	c0,3.3-2.1,4.9-4.1,4.9c-1.3,0-2.4-0.5-3.1-1.7h-0.1l-0.1,1.5H146.8z M148.5,27.3c0,0.2,0,0.4,0.1,0.6c0.3,1.2,1.3,2,2.5,2
	c1.7,0,2.8-1.4,2.8-3.5c0-1.8-0.9-3.4-2.7-3.4c-1.1,0-2.2,0.8-2.5,2c0,0.2-0.1,0.4-0.1,0.7V27.3z"/>
<path id="XMLID_20_" class="st2" d="M159.6,19.2c0,0.6-0.4,1-1.1,1c-0.6,0-1-0.5-1-1c0-0.6,0.4-1,1-1
	C159.2,18.1,159.6,18.6,159.6,19.2z M157.7,31v-9.2h1.7V31H157.7z"/>
<path id="XMLID_23_" class="st2" d="M167.2,31l-0.1-1.2H167c-0.5,0.7-1.5,1.4-2.8,1.4c-1.9,0-2.8-1.3-2.8-2.6c0-2.2,2-3.4,5.5-3.4
	v-0.2c0-0.8-0.2-2.1-2.1-2.1c-0.9,0-1.7,0.3-2.4,0.7l-0.4-1.1c0.8-0.5,1.9-0.8,3-0.8c2.8,0,3.5,1.9,3.5,3.8v3.4c0,0.8,0,1.6,0.2,2.2
	H167.2z M167,26.3c-1.8,0-3.9,0.3-3.9,2.1c0,1.1,0.7,1.6,1.6,1.6c1.2,0,2-0.8,2.2-1.5c0.1-0.2,0.1-0.4,0.1-0.5V26.3z"/>
<path id="XMLID_26_" class="st2" d="M191.6,18.2h-2L185.3,31h1.7l1.3-4l0.3-1.3l1.3-3.7c0.2-0.8,0.5-1.6,0.6-2.3h0
	c0.2,0.7,0.4,1.5,0.7,2.3l1.3,3.7l0.3,1.3l1.4,4h1.8L191.6,18.2z"/>
<path id="XMLID_29_" class="st2" d="M204.1,30.6c-0.4,0.2-1.4,0.5-2.6,0.5c-2.8,0-4.6-1.9-4.6-4.7c0-2.8,1.9-4.9,4.9-4.9
	c1,0,1.9,0.2,2.3,0.5l-0.4,1.3c-0.4-0.2-1-0.4-1.9-0.4c-2.1,0-3.2,1.6-3.2,3.5c0,2.1,1.4,3.4,3.2,3.4c0.9,0,1.6-0.2,2-0.5
	L204.1,30.6z"/>
<path id="XMLID_31_" class="st2" d="M212.5,30.6c-0.4,0.2-1.4,0.5-2.6,0.5c-2.8,0-4.6-1.9-4.6-4.7c0-2.8,1.9-4.9,4.9-4.9
	c1,0,1.9,0.2,2.3,0.5l-0.4,1.3c-0.4-0.2-1-0.4-1.9-0.4c-2.1,0-3.2,1.6-3.2,3.5c0,2.1,1.4,3.4,3.2,3.4c0.9,0,1.6-0.2,2-0.5
	L212.5,30.6z"/>
<path id="XMLID_33_" class="st2" d="M222.6,26.3c0,3.4-2.4,4.9-4.6,4.9c-2.5,0-4.4-1.8-4.4-4.7c0-3.1,2-4.9,4.6-4.9
	C220.9,21.6,222.6,23.5,222.6,26.3z M215.4,26.4c0,2,1.2,3.5,2.8,3.5c1.6,0,2.8-1.5,2.8-3.6c0-1.6-0.8-3.5-2.8-3.5
	C216.2,22.8,215.4,24.6,215.4,26.4z"/>
<path id="XMLID_36_" class="st2" d="M232.4,28.5c0,0.9,0,1.8,0.1,2.5H231l-0.1-1.5h0c-0.4,0.7-1.4,1.7-3,1.7c-1.4,0-3.2-0.8-3.2-4
	v-5.4h1.7v5.1c0,1.7,0.5,2.9,2,2.9c1.1,0,1.9-0.8,2.2-1.5c0.1-0.2,0.2-0.6,0.2-0.9v-5.6h1.7V28.5z"/>
<path id="XMLID_38_" class="st2" d="M235.2,24.3c0-0.9,0-1.7-0.1-2.5h1.5l0.1,1.5h0c0.5-0.9,1.5-1.7,3-1.7c1.3,0,3.2,0.8,3.2,3.9V31
	h-1.7v-5.3c0-1.5-0.6-2.7-2.1-2.7c-1.1,0-2,0.8-2.2,1.7c-0.1,0.2-0.1,0.5-0.1,0.8V31h-1.7V24.3z"/>
<path id="XMLID_40_" class="st2" d="M247.7,19.1v2.6h2.4V23h-2.4v5c0,1.1,0.3,1.8,1.3,1.8c0.4,0,0.8-0.1,1-0.1l0.1,1.3
	c-0.3,0.1-0.8,0.2-1.5,0.2c-0.8,0-1.4-0.2-1.8-0.7c-0.5-0.5-0.6-1.3-0.6-2.4v-5h-1.4v-1.3h1.4v-2.2L247.7,19.1z"/>
<path id="XMLID_42_" class="st2" d="M257,31l-0.1-1.2h-0.1c-0.5,0.7-1.5,1.4-2.8,1.4c-1.9,0-2.8-1.3-2.8-2.6c0-2.2,2-3.4,5.5-3.4
	v-0.2c0-0.8-0.2-2.1-2.1-2.1c-0.9,0-1.7,0.3-2.4,0.7l-0.4-1.1c0.8-0.5,1.9-0.8,3-0.8c2.8,0,3.5,1.9,3.5,3.8v3.4c0,0.8,0,1.6,0.2,2.2
	H257z M256.8,26.3c-1.8,0-3.9,0.3-3.9,2.1c0,1.1,0.7,1.6,1.6,1.6c1.2,0,2-0.8,2.2-1.5c0.1-0.2,0.1-0.4,0.1-0.5V26.3z"/>
<path id="XMLID_45_" class="st2" d="M261.1,24.3c0-0.9,0-1.7-0.1-2.5h1.5l0.1,1.5h0c0.5-0.9,1.5-1.7,3-1.7c1.3,0,3.2,0.8,3.2,3.9V31
	h-1.7v-5.3c0-1.5-0.6-2.7-2.1-2.7c-1.1,0-2,0.8-2.2,1.7c-0.1,0.2-0.1,0.5-0.1,0.8V31h-1.7V24.3z"/>
<path id="XMLID_2_" class="st2" d="M170.6,24.3c0-0.9,0-1.7-0.1-2.5h1.5l0.1,1.5h0c0.5-0.9,1.5-1.7,3-1.7c1.3,0,3.2,0.8,3.2,3.9V31
	h-1.7v-5.3c0-1.5-0.6-2.7-2.1-2.7c-1.1,0-2,0.8-2.2,1.7c-0.1,0.2-0.1,0.5-0.1,0.8V31h-1.7V24.3z"/>
<path id="XMLID_47_" class="st2" d="M278.2,30.6c-0.4,0.2-1.4,0.5-2.6,0.5c-2.8,0-4.6-1.9-4.6-4.7c0-2.8,1.9-4.9,4.9-4.9
	c1,0,1.9,0.2,2.3,0.5l-0.4,1.3c-0.4-0.2-1-0.4-1.9-0.4c-2.1,0-3.2,1.6-3.2,3.5c0,2.1,1.4,3.4,3.2,3.4c0.9,0,1.6-0.2,2-0.5
	L278.2,30.6z"/>
<path id="XMLID_49_" class="st2" d="M281.1,21.8l2,5.4c0.2,0.6,0.4,1.3,0.6,1.9h0c0.2-0.6,0.4-1.3,0.6-1.9l1.8-5.4h1.8l-2.5,6.5
	c-1.2,3.1-2,4.8-3.1,5.7c-0.8,0.7-1.6,1-2,1.1l-0.4-1.4c0.4-0.1,1-0.4,1.5-0.8c0.5-0.4,1-1,1.4-1.9c0.1-0.2,0.1-0.3,0.1-0.4
	s0-0.2-0.1-0.4l-3.4-8.5H281.1z"/>
<path id="XMLID_51_" class="st2" d="M296.8,29.4c-0.2-0.2-0.4-0.4-0.7-0.8c-0.7,0.6-1.4,0.9-2.3,0.9c-1.5,0-2.4-1-2.4-2.2
	c0-1.1,0.6-1.8,1.5-2.3v0c-0.4-0.5-0.6-1.1-0.6-1.6c0-0.9,0.7-1.9,2-1.9c1,0,1.7,0.6,1.7,1.6c0,0.8-0.5,1.5-1.7,2.1v0
	c0.7,0.8,1.4,1.6,1.9,2.2c0.4-0.5,0.6-1.3,0.7-2.3h0.9c-0.2,1.2-0.5,2.2-1.1,2.8c0.4,0.4,0.8,0.9,1.3,1.4H296.8z M295.6,28
	c-0.5-0.5-1.3-1.4-2.2-2.4c-0.4,0.3-1,0.8-1,1.6c0,0.9,0.7,1.6,1.6,1.6C294.7,28.7,295.3,28.4,295.6,28z M293.3,23.3
	c0,0.5,0.3,1,0.6,1.4c0.8-0.4,1.3-0.9,1.3-1.5c0-0.5-0.3-1-0.9-1C293.6,22.2,293.3,22.7,293.3,23.3z"/>
<path id="XMLID_55_" class="st2" d="M141.1,40.9h6.9v1.4h-5.2v4.3h4.8v1.4h-4.8v5.8h-1.7V40.9z"/>
<path id="XMLID_57_" class="st2" d="M151.6,42c0,0.6-0.4,1-1.1,1c-0.6,0-1-0.5-1-1c0-0.6,0.4-1,1-1C151.2,40.9,151.6,41.4,151.6,42z
	 M149.8,53.7v-9.2h1.7v9.2H149.8z"/>
<path id="XMLID_60_" class="st2" d="M154.2,47c0-0.9,0-1.7-0.1-2.5h1.5l0.1,1.5h0c0.5-0.9,1.5-1.7,3-1.7c1.3,0,3.2,0.8,3.2,3.9v5.5
	h-1.7v-5.3c0-1.5-0.6-2.7-2.1-2.7c-1.1,0-2,0.8-2.2,1.7c-0.1,0.2-0.1,0.5-0.1,0.8v5.5h-1.7V47z"/>
<path id="XMLID_62_" class="st2" d="M169.8,53.7l-0.1-1.2h-0.1c-0.5,0.7-1.5,1.4-2.8,1.4c-1.9,0-2.8-1.3-2.8-2.6
	c0-2.2,2-3.4,5.5-3.4v-0.2c0-0.8-0.2-2.1-2.1-2.1c-0.9,0-1.7,0.3-2.4,0.7l-0.4-1.1c0.8-0.5,1.9-0.8,3-0.8c2.8,0,3.5,1.9,3.5,3.8v3.4
	c0,0.8,0,1.6,0.2,2.2H169.8z M169.6,49c-1.8,0-3.9,0.3-3.9,2.1c0,1.1,0.7,1.6,1.6,1.6c1.2,0,2-0.8,2.2-1.5c0.1-0.2,0.1-0.4,0.1-0.5
	V49z"/>
<path id="XMLID_65_" class="st2" d="M173.9,47c0-0.9,0-1.7-0.1-2.5h1.5l0.1,1.5h0c0.5-0.9,1.5-1.7,3-1.7c1.3,0,3.2,0.8,3.2,3.9v5.5
	H180v-5.3c0-1.5-0.6-2.7-2.1-2.7c-1.1,0-2,0.8-2.2,1.7c-0.1,0.2-0.1,0.5-0.1,0.8v5.5h-1.7V47z"/>
<path id="XMLID_67_" class="st2" d="M191,53.4c-0.4,0.2-1.4,0.5-2.6,0.5c-2.8,0-4.6-1.9-4.6-4.7c0-2.8,1.9-4.9,4.9-4.9
	c1,0,1.9,0.2,2.3,0.5l-0.4,1.3c-0.4-0.2-1-0.4-1.9-0.4c-2.1,0-3.2,1.6-3.2,3.5c0,2.1,1.4,3.4,3.2,3.4c0.9,0,1.6-0.2,2-0.5L191,53.4z
	"/>
<path id="XMLID_69_" class="st2" d="M193.7,49.4c0,2.3,1.5,3.2,3.1,3.2c1.2,0,1.9-0.2,2.5-0.5l0.3,1.2c-0.6,0.3-1.6,0.6-3.1,0.6
	c-2.8,0-4.5-1.9-4.5-4.6c0-2.8,1.6-5,4.3-5c3,0,3.8,2.6,3.8,4.3c0,0.3,0,0.6-0.1,0.8H193.7z M198.6,48.2c0-1.1-0.4-2.7-2.3-2.7
	c-1.7,0-2.4,1.6-2.6,2.7H198.6z"/>
<path id="XMLID_72_" class="st2" d="M211.8,40.9h-2l-4.3,12.8h1.7l1.3-4l0.3-1.3l1.3-3.7c0.2-0.8,0.5-1.6,0.6-2.3h0
	c0.2,0.7,0.4,1.5,0.7,2.3l1.3,3.7l0.3,1.3l1.4,4h1.8L211.8,40.9z"/>
<path id="XMLID_75_" class="st2" d="M218.2,44.5l1.2,4.7c0.3,1,0.5,2,0.7,2.9h0.1c0.2-0.9,0.5-1.9,0.8-2.9l1.5-4.7h1.4l1.4,4.6
	c0.3,1.1,0.6,2.1,0.8,3h0.1c0.2-0.9,0.4-1.9,0.7-3l1.3-4.6h1.7l-3,9.2h-1.5l-1.4-4.4c-0.3-1-0.6-1.9-0.8-3h0c-0.2,1.1-0.5,2-0.8,3
	l-1.5,4.4h-1.5l-2.8-9.2H218.2z"/>
<path id="XMLID_77_" class="st2" d="M236.5,53.7l-0.1-1.2h-0.1c-0.5,0.7-1.5,1.4-2.8,1.4c-1.9,0-2.8-1.3-2.8-2.6
	c0-2.2,2-3.4,5.5-3.4v-0.2c0-0.8-0.2-2.1-2.1-2.1c-0.9,0-1.7,0.3-2.4,0.7l-0.4-1.1c0.8-0.5,1.9-0.8,3-0.8c2.8,0,3.5,1.9,3.5,3.8v3.4
	c0,0.8,0,1.6,0.2,2.2H236.5z M236.3,49c-1.8,0-3.9,0.3-3.9,2.1c0,1.1,0.7,1.6,1.6,1.6c1.2,0,2-0.8,2.2-1.5c0.1-0.2,0.1-0.4,0.1-0.5
	V49z"/>
<path id="XMLID_80_" class="st2" d="M240.6,47.4c0-1.1,0-2-0.1-2.9h1.5l0.1,1.8h0.1c0.4-1.2,1.4-2,2.5-2c0.2,0,0.3,0,0.5,0.1V46
	c-0.2,0-0.3-0.1-0.6-0.1c-1.2,0-2,0.9-2.2,2.1c0,0.2-0.1,0.5-0.1,0.8v4.9h-1.7V47.4z"/>
<path id="XMLID_82_" class="st2" d="M254.5,40.3v11.1c0,0.8,0,1.7,0.1,2.4h-1.5l-0.1-1.6h0c-0.5,1-1.6,1.8-3.1,1.8
	c-2.2,0-3.9-1.9-3.9-4.7c0-3.1,1.9-4.9,4.1-4.9c1.4,0,2.4,0.7,2.8,1.4h0v-5.5H254.5z M252.9,48.3c0-0.2,0-0.5-0.1-0.7
	c-0.2-1.1-1.2-1.9-2.4-1.9c-1.7,0-2.8,1.5-2.8,3.5c0,1.9,0.9,3.4,2.7,3.4c1.1,0,2.1-0.7,2.4-2c0.1-0.2,0.1-0.5,0.1-0.7V48.3z"/>
<path id="XMLID_85_" class="st2" d="M257.1,52c0.5,0.3,1.4,0.7,2.2,0.7c1.2,0,1.8-0.6,1.8-1.4c0-0.8-0.5-1.2-1.7-1.7
	c-1.7-0.6-2.4-1.5-2.4-2.6c0-1.5,1.2-2.7,3.2-2.7c0.9,0,1.7,0.3,2.3,0.6l-0.4,1.2c-0.4-0.2-1-0.5-1.9-0.5c-1,0-1.5,0.6-1.5,1.3
	c0,0.8,0.6,1.1,1.7,1.6c1.6,0.6,2.4,1.4,2.4,2.8c0,1.6-1.3,2.8-3.4,2.8c-1,0-1.9-0.2-2.6-0.6L257.1,52z"/>
</svg>
